<svg width="17" height="17" viewBox="0 0 17 17" fill="none" xmlns="http://www.w3.org/2000/svg">
<g clip-path="url(#clip0_1_224)">
<path d="M12.0417 1.4165H4.95833C3.00233 1.4165 1.41667 3.00216 1.41667 4.95817V12.0415C1.41667 13.9975 3.00233 15.5832 4.95833 15.5832H12.0417C13.9977 15.5832 15.5833 13.9975 15.5833 12.0415V4.95817C15.5833 3.00216 13.9977 1.4165 12.0417 1.4165Z" stroke="#555555" stroke-width="1.0625" stroke-linecap="round" stroke-linejoin="round"/>
<path d="M11.3333 8.05396C11.4208 8.64347 11.3201 9.24553 11.0456 9.77452C10.7711 10.3035 10.3368 10.7325 9.80449 11.0004C9.27216 11.2683 8.6689 11.3616 8.08052 11.2669C7.49213 11.1722 6.94858 10.8944 6.52718 10.473C6.10578 10.0516 5.82798 9.50808 5.7333 8.9197C5.63862 8.33131 5.73188 7.72806 5.99982 7.19573C6.26775 6.6634 6.69672 6.22911 7.2257 5.95463C7.75468 5.68016 8.35674 5.57946 8.94625 5.66688C9.54757 5.75605 10.1043 6.03625 10.5341 6.4661C10.964 6.89594 11.2442 7.45264 11.3333 8.05396Z" stroke="#555555" stroke-width="1.0625" stroke-linecap="round" stroke-linejoin="round"/>
<path d="M12.3958 4.604H12.4029" stroke="#555555" stroke-width="1.0625" stroke-linecap="round" stroke-linejoin="round"/>
</g>
<defs>
<clipPath id="clip0_1_224">
<rect width="17" height="17" fill="white"/>
</clipPath>
</defs>
</svg>
