<svg width="17" height="17" viewBox="0 0 17 17" fill="none" xmlns="http://www.w3.org/2000/svg">
<path d="M1.77083 12.0417C1.27601 9.70648 1.27601 7.29352 1.77083 4.95833C1.83585 4.72119 1.96147 4.50505 2.13534 4.33118C2.30922 4.15731 2.52535 4.03168 2.7625 3.96667C6.56161 3.33728 10.4384 3.33728 14.2375 3.96667C14.4746 4.03168 14.6908 4.15731 14.8647 4.33118C15.0385 4.50505 15.1641 4.72119 15.2292 4.95833C15.724 7.29352 15.724 9.70648 15.2292 12.0417C15.1641 12.2788 15.0385 12.4949 14.8647 12.6688C14.6908 12.8427 14.4746 12.9683 14.2375 13.0333C10.4384 13.6628 6.5616 13.6628 2.7625 13.0333C2.52535 12.9683 2.30922 12.8427 2.13534 12.6688C1.96147 12.4949 1.83585 12.2788 1.77083 12.0417Z" stroke="#555555" stroke-width="1.0625" stroke-linecap="round" stroke-linejoin="round"/>
<path d="M7.08334 10.625L10.625 8.5L7.08334 6.375V10.625Z" stroke="#555555" stroke-width="1.0625" stroke-linecap="round" stroke-linejoin="round"/>
</svg>
